<?xml version="1.0" encoding="UTF-8"?>
<svg id="Layer_1" xmlns="http://www.w3.org/2000/svg" version="1.1" viewBox="0 0 1000 1000">
  <!-- Generator: Adobe Illustrator 29.8.1, SVG Export Plug-In . SVG Version: 2.1.1 Build 2)  -->
  <defs>
    <style>
      .st0 {
        fill: #fff;
      }
    </style>
  </defs>
  <path class="st0" d="M747.27,68.24c-3.69-2.83-8.26-3.66-13.68-2.51l-79.85,17.06c-7.89,1.69-13.73,5.14-17.52,10.32-3.79,5.19-6.15,9.18-7.1,11.95l-130.5,272.18-129.77-216.58c-1.51-2.24-4.32-5.13-8.42-8.63-4.11-3.5-10.1-4.43-17.98-2.74l-79.85,17.06c-5.43,1.16-9.98,3.95-13.68,8.35-3.69,4.39-5.47,9.41-5.29,15.04l.64,502.4c.04,1.27.06,157.7.06,157.7,0,1.83.72,3.45,1.79,4.77h-.08l3.57,4.79h0s19.4,26.02,19.4,26.02l9.35,12.54,18.54,24.88c5.21,6.99,15.67,7.02,20.92.06l47.67-63.23,3.6-4.78h-.15c1.08-1.32,1.81-2.93,1.81-4.76l-.61-477.14,85.98,145.53c2.42,4.12,5.49,7.61,9.17,10.42,3.71,2.82,9,3.49,15.9,2.01l38.44-8.21c6.91-1.47,12.29-4.56,16.2-9.25,3.88-4.7,7.14-9.38,9.75-14.07l81.06-174.25.62,285.15c.15,5.64,2.1,9.86,5.79,12.67,3.69,2.83,8.01,3.71,12.94,2.65l88.72-18.95c5.42-1.16,9.99-3.94,13.68-8.34,3.71-4.39,5.47-9.4,5.3-15.04l-.64-502.4c-.17-5.64-2.11-9.85-5.8-12.67Z"/>
</svg>