<svg width="56" height="56" viewBox="0 0 56 56" fill="none" xmlns="http://www.w3.org/2000/svg">
  <defs>
    <linearGradient id="gold" x1="0%" y1="0%" x2="100%" y2="100%">
      <stop offset="0%" style="stop-color:#c9ae6e;stop-opacity:1" />
      <stop offset="100%" style="stop-color:#b89d5d;stop-opacity:1" />
    </linearGradient>
  </defs>
  
  <!-- Golf Tee 1 -->
  <g transform="translate(4, 8)">
    <!-- Fedora Hat -->
    <ellipse cx="6" cy="6" rx="5" ry="1.5" fill="url(#gold)"/>
    <ellipse cx="6" cy="4.5" rx="4" ry="1" fill="url(#gold)"/>
    <rect x="2" y="4.5" width="8" height="1" fill="url(#gold)"/>
    <!-- Golf Tee -->
    <path d="M 6 4.5 L 8 20 L 4 20 Z" fill="url(#gold)"/>
  </g>
  
  <!-- Golf Tee 2 -->
  <g transform="translate(18, 8)">
    <!-- Fedora Hat -->
    <ellipse cx="6" cy="6" rx="5" ry="1.5" fill="url(#gold)"/>
    <ellipse cx="6" cy="4.5" rx="4" ry="1" fill="url(#gold)"/>
    <rect x="2" y="4.5" width="8" height="1" fill="url(#gold)"/>
    <!-- Golf Tee -->
    <path d="M 6 4.5 L 8 20 L 4 20 Z" fill="url(#gold)"/>
  </g>
  
  <!-- Golf Tee 3 -->
  <g transform="translate(32, 8)">
    <!-- Fedora Hat -->
    <ellipse cx="6" cy="6" rx="5" ry="1.5" fill="url(#gold)"/>
    <ellipse cx="6" cy="4.5" rx="4" ry="1" fill="url(#gold)"/>
    <rect x="2" y="4.5" width="8" height="1" fill="url(#gold)"/>
    <!-- Golf Tee -->
    <path d="M 6 4.5 L 8 20 L 4 20 Z" fill="url(#gold)"/>
  </g>
  
  <!-- Golf Tee 4 -->
  <g transform="translate(46, 8)">
    <!-- Fedora Hat -->
    <ellipse cx="6" cy="6" rx="5" ry="1.5" fill="url(#gold)"/>
    <ellipse cx="6" cy="4.5" rx="4" ry="1" fill="url(#gold)"/>
    <rect x="2" y="4.5" width="8" height="1" fill="url(#gold)"/>
    <!-- Golf Tee -->
    <path d="M 6 4.5 L 8 20 L 4 20 Z" fill="url(#gold)"/>
  </g>
</svg>
